<svg xmlns="http://www.w3.org/2000/svg" viewBox="0 0 20 20">
    <!-- Body -->
    <ellipse cx="10" cy="10" rx="7" ry="6" fill="#f8c471" />

    <!-- Segments -->
    <line x1="7" y1="7" x2="13" y2="7" stroke="black" stroke-width="0.5" />
    <line x1="6" y1="10" x2="14" y2="10" stroke="black" stroke-width="0.5" />
    <line x1="7" y1="13" x2="13" y2="13" stroke="black" stroke-width="0.5" />

    <!-- Eyes -->
    <circle cx="7.5" cy="8.5" r="1.5" fill="#ff6b6b" />
    <circle cx="12.5" cy="8.5" r="1.5" fill="#ff6b6b" />
    <circle cx="7.5" cy="8.5" r="0.6" fill="black" />
    <circle cx="12.5" cy="8.5" r="0.6" fill="black" />

    <!-- Antennae (thinner) -->
    <path d="M8 5 C6 3, 6 5, 7 6" fill="transparent" stroke="black" stroke-width="0.4" />
    <path d="M12 5 C14 3, 14 5, 13 6" fill="transparent" stroke="black" stroke-width="0.4" />

    <!-- Legs -->
    <path d="M3 7 C3 8, 4 9, 5 9" fill="transparent" stroke="black" stroke-width="0.7" />
    <path d="M3 10 C3 11, 4 11, 5 10" fill="transparent" stroke="black" stroke-width="0.7" />
    <path d="M3 13 C3 12, 4 11, 5 11" fill="transparent" stroke="black" stroke-width="0.7" />
    <path d="M17 7 C17 8, 16 9, 15 9" fill="transparent" stroke="black" stroke-width="0.7" />
    <path d="M17 10 C17 11, 16 11, 15 10" fill="transparent" stroke="black" stroke-width="0.7" />
    <path d="M17 13 C17 12, 16 11, 15 11" fill="transparent" stroke="black" stroke-width="0.7" />
</svg>