<svg xmlns="http://www.w3.org/2000/svg" viewBox="0 0 20 20">
    <!-- Main Body -->
    <path d="M4 10 Q4 5, 10 4 Q16 5, 16 10 Q16 15, 10 16 Q4 15, 4 10 Z" fill="#e74c3c" />

    <!-- Shell pattern -->
    <path d="M5 10 Q5 6, 10 5 Q15 6, 15 10 L10 11 Z" fill="#c0392b" />
    <path d="M5 10 Q5 14, 10 15 Q15 14, 15 10 L10 9 Z" fill="#a93226" />

    <!-- Eyes -->
    <path d="M7 7.5 L9 9 L7 10.5 Z" fill="yellow" />
    <path d="M13 7.5 L11 9 L13 10.5 Z" fill="yellow" />
    <circle cx="8" cy="9" r="0.5" fill="black" />
    <circle cx="12" cy="9" r="0.5" fill="black" />

    <!-- Scary mouth -->
    <path d="M7 11 Q10 14 13 11" fill="#6e2c00" />
    <path d="M7.5 11.5 L8 13 L8.5 11.5" fill="white" stroke="black" stroke-width="0.3" />
    <path d="M9 11.5 L9.5 13.5 L10 11.5" fill="white" stroke="black" stroke-width="0.3" />
    <path d="M10 11.5 L10.5 13.5 L11 11.5" fill="white" stroke="black" stroke-width="0.3" />
    <path d="M11.5 11.5 L12 13 L12.5 11.5" fill="white" stroke="black" stroke-width="0.3" />

    <!-- Spikes on body (thinner) -->
    <path d="M10 4 L10 2" stroke="black" stroke-width="0.4" />
    <path d="M8 4.5 L7 3" stroke="black" stroke-width="0.4" />
    <path d="M12 4.5 L13 3" stroke="black" stroke-width="0.4" />
    <path d="M10 16 L10 18" stroke="black" stroke-width="0.4" />
    <path d="M8 15.5 L7 17" stroke="black" stroke-width="0.4" />
    <path d="M12 15.5 L13 17" stroke="black" stroke-width="0.4" />

    <!-- Jagged legs -->
    <path d="M3 7 L5 8 L4 8.5 L5 9" fill="transparent" stroke="black" stroke-width="0.7" />
    <path d="M3 13 L5 12 L4 11.5 L5 11" fill="transparent" stroke="black" stroke-width="0.7" />
    <path d="M17 7 L15 8 L16 8.5 L15 9" fill="transparent" stroke="black" stroke-width="0.7" />
    <path d="M17 13 L15 12 L16 11.5 L15 11" fill="transparent" stroke="black" stroke-width="0.7" />
</svg>